<?xml version="1.0" encoding="iso-8859-1"?>
<!-- Generator: Adobe Illustrator 19.0.0, SVG Export Plug-In . SVG Version: 6.00 Build 0)  -->
<svg version="1.1" id="Layer_1" xmlns="http://www.w3.org/2000/svg" xmlns:xlink="http://www.w3.org/1999/xlink" x="0px" y="0px"
	 viewBox="0 0 512 512" style="enable-background:new 0 0 512 512;" xml:space="preserve">
<path style="fill:#9A1F2A;" d="M430.029,256v11.311c0,12.286-9.966,22.244-22.261,22.244h-5.536L356.379,512h-196.67
	l-45.866-222.522c-11.581-0.785-20.739-10.396-20.739-22.167V256H430.029z"/>
<path style="fill:#7F1521;" d="M374.768,422.783L356.379,512h-196.67l-45.866-222.522c-7.663-0.519-14.247-4.915-17.837-11.233
	h96.247C221.216,359.99,291.574,418.717,374.768,422.783z"/>
<path style="fill:#663310;" d="M434.087,212.161c0,10.243-1.411,20.164-4.058,29.58v25.569c0,12.286-9.966,22.244-22.261,22.244
	h-73.855v38.928c0,9.214-7.475,16.683-16.696,16.683c-9.22,0-16.696-7.47-16.696-16.683v-38.928H115.363
	c-12.295,0-22.261-9.96-22.261-22.244v-25.569c-2.647-9.415-4.058-19.336-4.058-29.58c0-51.641,35.889-95.028,84.454-107.31
	c18.768-25.813,48.505-43.353,82.501-46.028v-0.338c0.682-0.012,1.362-0.03,2.048-0.03c1.176,0,2.35,0.018,3.517,0.053
	c1.168-0.036,2.341-0.053,3.517-0.053c0.685,0,1.366,0.018,2.048,0.03v0.338c33.997,2.675,63.734,20.215,82.501,46.028
	C398.198,117.132,434.087,160.52,434.087,212.161z"/>
<path style="fill:#391B10;" d="M434.087,212.161c0,10.243-1.411,20.164-4.058,29.58v25.569c0,12.286-9.966,22.244-22.261,22.244
	h-73.855v38.928c0,9.214-7.475,16.683-16.696,16.683c-9.22,0-16.696-7.47-16.696-16.683v-38.928H115.363
	c-12.295,0-22.261-9.96-22.261-22.244v-25.569c-0.107-0.382-0.2-0.77-0.304-1.154c14.962,2.934,30.456,4.478,46.332,4.478
	c97.322,0,180.4-57.923,213.193-139.474C399.514,118.774,434.087,161.482,434.087,212.161z"/>
<path style="fill:#874D20;" d="M140.885,155.728c-0.834,0.244-1.674,0.36-2.5,0.36c-3.856,0-7.408-2.521-8.544-6.406L89.423,11.395
	c-1.378-4.717,1.331-9.658,6.052-11.036c4.722-1.379,9.665,1.33,11.044,6.046l40.418,138.287
	C148.315,149.411,145.605,154.35,140.885,155.728z"/>
<path style="fill:#CF8F3D;" d="M145.555,89.424c37.363,0,67.645,29.815,67.645,66.593s-30.283,66.591-67.645,66.591
	c-37.359,0-67.642-29.814-67.642-66.591S108.196,89.424,145.555,89.424L145.555,89.424z"/>
<path style="fill:#FFEE88;" d="M166.957,146.106c0,18.428-14.949,33.367-33.391,33.367s-33.391-14.939-33.391-33.367
	s14.949-33.367,33.391-33.367S166.957,127.678,166.957,146.106z"/>
<g>
</g>
<g>
</g>
<g>
</g>
<g>
</g>
<g>
</g>
<g>
</g>
<g>
</g>
<g>
</g>
<g>
</g>
<g>
</g>
<g>
</g>
<g>
</g>
<g>
</g>
<g>
</g>
<g>
</g>
</svg>
